<svg width="52" height="48" viewBox="0 0 52 48" fill="none" xmlns="http://www.w3.org/2000/svg">
<path d="M21.1085 12.482L14.3425 4.67201C13.5625 3.77201 12.1325 3.77601 11.2265 4.68401L5.66246 10.258C4.00646 11.916 3.53246 14.378 4.49046 16.352C10.2128 28.2026 19.7699 37.7731 31.6125 43.512C33.5845 44.47 36.0445 43.996 37.7005 42.338L43.3165 36.712C44.2265 35.802 44.2285 34.364 43.3205 33.584L35.4805 26.854C34.6605 26.15 33.3865 26.242 32.5645 27.066L29.8365 29.798C29.6972 29.945 29.5133 30.0419 29.3133 30.0737C29.1134 30.1055 28.9085 30.0705 28.7305 29.974C24.2715 27.406 20.5727 23.7023 18.0105 19.24C17.9135 19.0618 17.8782 18.8565 17.91 18.6561C17.9419 18.4557 18.0391 18.2714 18.1865 18.132L20.9065 15.41C21.7305 14.582 21.8205 13.304 21.1085 12.482Z" stroke="white" stroke-width="3" stroke-linecap="round" stroke-linejoin="round"/>
</svg>
