<svg width="24" height="33" viewBox="0 0 24 33" fill="none" xmlns="http://www.w3.org/2000/svg">
<path d="M9 26V27C9 27.7956 9.31607 28.5587 9.87868 29.1213C10.4413 29.6839 11.2044 30 12 30C12.7956 30 13.5587 29.6839 14.1213 29.1213C14.6839 28.5587 15 27.7956 15 27V26M10 14C10 13.4696 10.2107 12.9609 10.5858 12.5858C10.9609 12.2107 11.4696 12 12 12C12.5304 12 13.0391 12.2107 13.4142 12.5858C13.7893 12.9609 14 13.4696 14 14C15.1484 14.543 16.1274 15.3883 16.8321 16.4453C17.5367 17.5023 17.9404 18.7311 18 20V23C18.0753 23.6217 18.2954 24.2171 18.6428 24.7381C18.9902 25.2592 19.4551 25.6914 20 26H4C4.54494 25.6914 5.00981 25.2592 5.35719 24.7381C5.70457 24.2171 5.92474 23.6217 6 23V20C6.05956 18.7311 6.4633 17.5023 7.16795 16.4453C7.8726 15.3883 8.85159 14.543 10 14Z" stroke="white" stroke-width="2" stroke-linecap="round" stroke-linejoin="round"/>
</svg>
