<svg width="12" height="10" viewBox="0 0 12 10" fill="none" xmlns="http://www.w3.org/2000/svg">
<path d="M10.929 9.99999H1.07233C0.746737 9.99999 0.486618 9.89175 0.291971 9.67525C0.0973233 9.45875 0 9.20558 0 8.91572C0 8.82089 0.0123865 8.72517 0.0371598 8.62855C0.0610483 8.53104 0.0977661 8.43487 0.147313 8.34004L5.10153 0.500535C5.21655 0.334137 5.34837 0.208893 5.49701 0.124799C5.64477 0.0415997 5.81243 -3.90804e-07 6 -3.90804e-07C6.18757 -3.90804e-07 6.35523 0.0415997 6.50299 0.124799C6.65074 0.207998 6.78257 0.333242 6.89847 0.500535L11.8527 8.34138C11.9013 8.43531 11.9381 8.53104 11.9628 8.62855C11.9876 8.72517 12 8.82089 12 8.91572C12 9.20468 11.9027 9.45786 11.708 9.67525C11.5134 9.89264 11.2537 10.0009 10.929 9.99999Z" fill="#0F1012"/>
</svg>
