<svg width="24" height="24" viewBox="0 0 24 24" fill="none" xmlns="http://www.w3.org/2000/svg">
<path d="M19.221 10.803L12 10V4C12 3.46957 11.7893 2.96086 11.4142 2.58579C11.0391 2.21071 10.5304 2 10 2C9.46957 2 8.96087 2.21071 8.58579 2.58579C8.21072 2.96086 8.00001 3.46957 8.00001 4V16L4.96901 14.788C4.71594 14.6868 4.44487 14.6384 4.17242 14.6458C3.89998 14.6532 3.63191 14.7161 3.38469 14.8309C3.13746 14.9456 2.91629 15.1096 2.73475 15.3129C2.55321 15.5162 2.41514 15.7544 2.32901 16.013L2.21601 16.353C2.15256 16.5438 2.1481 16.7493 2.20323 16.9427C2.25835 17.1361 2.37049 17.3083 2.52501 17.437L7.72201 21.769C7.90101 21.918 8.12801 22 8.36201 22H19C19.5304 22 20.0391 21.7893 20.4142 21.4142C20.7893 21.0391 21 20.5304 21 20V12.79C20.9998 12.298 20.8183 11.8233 20.4901 11.4567C20.1619 11.0901 19.71 10.8574 19.221 10.803Z" fill="black"/>
</svg>
