<svg width="16" height="16" viewBox="0 0 16 16" fill="none" xmlns="http://www.w3.org/2000/svg">
<path d="M10.6666 8.66667H9.33325C9.33325 9.02029 9.19278 9.35943 8.94273 9.60948C8.69268 9.85952 8.35354 10 7.99992 10C7.6463 10 7.30716 9.85952 7.05711 9.60948C6.80706 9.35943 6.66659 9.02029 6.66659 8.66667H5.33325C5.33325 9.37391 5.6142 10.0522 6.1143 10.5523C6.6144 11.0524 7.29267 11.3333 7.99992 11.3333C8.70716 11.3333 9.38544 11.0524 9.88554 10.5523C10.3856 10.0522 10.6666 9.37391 10.6666 8.66667ZM6.66659 6.66667C6.66659 6.84348 6.59635 7.01305 6.47132 7.13807C6.3463 7.2631 6.17673 7.33333 5.99992 7.33333C5.82311 7.33333 5.65354 7.2631 5.52851 7.13807C5.40349 7.01305 5.33325 6.84348 5.33325 6.66667C5.33325 6.48986 5.40349 6.32029 5.52851 6.19526C5.65354 6.07024 5.82311 6 5.99992 6C6.17673 6 6.3463 6.07024 6.47132 6.19526C6.59635 6.32029 6.66659 6.48986 6.66659 6.66667ZM9.99992 7.33333C10.1767 7.33333 10.3463 7.2631 10.4713 7.13807C10.5963 7.01305 10.6666 6.84348 10.6666 6.66667C10.6666 6.48986 10.5963 6.32029 10.4713 6.19526C10.3463 6.07024 10.1767 6 9.99992 6C9.82311 6 9.65354 6.07024 9.52851 6.19526C9.40349 6.32029 9.33325 6.48986 9.33325 6.66667C9.33325 6.84348 9.40349 7.01305 9.52851 7.13807C9.65354 7.2631 9.82311 7.33333 9.99992 7.33333Z" fill="#808080"/>
<path fill-rule="evenodd" clip-rule="evenodd" d="M14.6666 8.00016C14.6666 11.6822 11.6819 14.6668 7.99992 14.6668C4.31792 14.6668 1.33325 11.6822 1.33325 8.00016C1.33325 4.31816 4.31792 1.3335 7.99992 1.3335C11.6819 1.3335 14.6666 4.31816 14.6666 8.00016ZM13.3333 8.00016C13.3333 9.41465 12.7713 10.7712 11.7712 11.7714C10.771 12.7716 9.41441 13.3335 7.99992 13.3335C6.58543 13.3335 5.22888 12.7716 4.22868 11.7714C3.22849 10.7712 2.66659 9.41465 2.66659 8.00016C2.66659 6.58567 3.22849 5.22912 4.22868 4.22893C5.22888 3.22873 6.58543 2.66683 7.99992 2.66683C9.41441 2.66683 10.771 3.22873 11.7712 4.22893C12.7713 5.22912 13.3333 6.58567 13.3333 8.00016Z" fill="#808080"/>
</svg>
