<svg width="18" height="19" viewBox="0 0 18 19" fill="none" xmlns="http://www.w3.org/2000/svg">
<path opacity="0.987" fill-rule="evenodd" clip-rule="evenodd" d="M7.93853 0.0809273C8.90432 -0.0269758 9.47581 -0.0269758 10.5135 0.0809273C12.3505 0.35281 14.0533 1.2019 15.3758 2.50541C14.4821 3.35017 13.6002 4.20726 12.7302 5.07644C11.0642 3.66437 9.2045 3.33844 7.15124 4.09865C5.64504 4.79136 4.59621 5.91391 4.00474 7.46629C3.0382 6.74671 2.08425 6.01037 1.14332 5.25761C1.07793 5.22319 1.00324 5.21058 0.930176 5.22164C2.42483 2.33979 4.7605 0.625771 7.9372 0.0795951" fill="#F44336"/>
<path opacity="0.997" fill-rule="evenodd" clip-rule="evenodd" d="M0.9275 5.22165C1.00299 5.21011 1.07448 5.2221 1.14197 5.25762C2.0829 6.01039 3.03685 6.74672 4.0034 7.4663C3.8513 8.07117 3.75542 8.6888 3.71699 9.31131C3.74985 9.91344 3.84532 10.5045 4.0034 11.0844L0.999436 13.4756C-0.308719 10.742 -0.332697 7.99072 0.9275 5.22165Z" fill="#FFC107"/>
<path opacity="0.999" fill-rule="evenodd" clip-rule="evenodd" d="M15.2332 16.3716C14.2979 15.5467 13.3187 14.7729 12.2999 14.0536C13.3212 13.3325 13.9411 12.3432 14.1595 11.0856H9.15472V7.61011C12.041 7.58613 14.926 7.61055 17.8096 7.68337C18.3567 10.654 17.7248 13.3325 15.914 15.7188C15.6986 15.9477 15.4706 16.1656 15.2332 16.3716Z" fill="#448AFF"/>
<path opacity="0.993" fill-rule="evenodd" clip-rule="evenodd" d="M4.00341 11.0857C5.09576 13.8006 7.0984 15.0679 10.0113 14.8876C10.829 14.793 11.613 14.5073 12.2999 14.0537C13.3195 14.7748 14.2972 15.5475 15.2333 16.3716C13.7502 17.7043 11.8591 18.4951 9.86879 18.6149C9.41659 18.6511 8.96222 18.6511 8.51002 18.6149C5.11929 18.2153 2.61577 16.5022 0.999451 13.4755L4.00341 11.0857Z" fill="#43A047"/>
</svg>
