<svg width="24" height="25" viewBox="0 0 24 25" fill="none" xmlns="http://www.w3.org/2000/svg">
<g clip-path="url(#clip0_656_8441)">
<path d="M13.7459 18.0138C15.1859 16.9263 17.1396 16.9263 18.5834 18.0138C19.2171 18.49 19.8171 18.82 20.3759 18.9362C20.8896 19.0412 21.4034 18.97 21.9621 18.55C22.3596 18.25 22.9221 18.3287 23.2221 18.7262C23.5221 19.1237 23.4396 19.69 23.0421 19.9862C22.0521 20.7325 21.0096 20.9012 20.0159 20.7025C19.0671 20.5112 18.2121 19.9937 17.4959 19.4537C16.6971 18.85 15.6246 18.85 14.8259 19.4537C13.9184 20.14 12.8646 20.8 11.6984 20.8C10.5321 20.8 9.48213 20.1362 8.57463 19.4537C7.77588 18.85 6.70338 18.85 5.90463 19.4537C5.01213 20.125 3.87588 20.785 2.60088 20.7775C1.83588 20.7738 1.07463 20.5262 0.358382 19.9862C-0.0391179 19.6862 -0.117868 19.1237 0.182132 18.7262C0.482132 18.3287 1.04463 18.25 1.44213 18.55C1.86588 18.8687 2.25213 18.9775 2.61213 18.9812C3.27213 18.985 4.01088 18.6287 4.82088 18.0175C6.26088 16.93 8.21838 16.93 9.65838 18.0175C10.5584 18.6962 11.1846 19.0037 11.7021 19.0037C12.2196 19.0037 12.8459 18.6962 13.7459 18.0175V18.0138ZM18.8946 4C20.7059 4 22.2321 5.35 22.4571 7.14625L22.4946 7.45375C22.5771 8.11 22.1121 8.71 21.4521 8.7925C20.7921 8.875 20.1959 8.41 20.1134 7.75L20.0759 7.4425C20.0009 6.84625 19.4946 6.4 18.8946 6.4C18.2384 6.4 17.7021 6.9325 17.7021 7.5925V15.535C16.8359 15.3437 16.0184 15.37 15.3021 15.52V13.6H8.10213V15.4262C7.90338 15.4075 7.70088 15.3962 7.50213 15.4C6.89463 15.4037 6.28713 15.5012 5.70213 15.7V7.5925C5.70213 5.60875 7.31088 4 9.29088 4C11.1021 4 12.6284 5.35 12.8534 7.14625L12.8909 7.45375C12.9734 8.11 12.5084 8.71 11.8484 8.7925C11.1884 8.875 10.5921 8.41 10.5096 7.75L10.4721 7.4425C10.3971 6.84625 9.89088 6.4 9.29088 6.4C8.63463 6.4 8.10213 6.9325 8.10213 7.5925V11.2H15.3021V7.5925C15.3021 5.60875 16.9109 4 18.8946 4Z" fill="#808080"/>
</g>
<defs>
<clipPath id="clip0_656_8441">
<rect width="23.4029" height="24.8" fill="white"/>
</clipPath>
</defs>
</svg>
