<svg width="19" height="19" viewBox="0 0 19 19" fill="none" xmlns="http://www.w3.org/2000/svg">
<path d="M9.5 2.375C14.0917 2.375 17.8133 5.27567 17.8133 8.85479C17.8133 12.4331 14.0917 15.3338 9.50079 15.3338C9.0437 15.333 8.58709 15.3039 8.13359 15.2467L4.64392 17.5291C4.24729 17.7389 4.10717 17.7159 4.27025 17.2021L4.97642 14.2904C2.69642 13.1345 1.18829 11.1316 1.18829 8.85479C1.18829 5.27646 4.90913 2.375 9.50079 2.375M14.178 8.75583L15.3417 7.6285C15.4089 7.55876 15.4463 7.46568 15.4462 7.36887C15.4461 7.27206 15.4084 7.17907 15.3411 7.10949C15.2738 7.03991 15.1821 6.99918 15.0853 6.99587C14.9886 6.99256 14.8943 7.02694 14.8224 7.09175L13.296 8.569V7.34825C13.296 7.24915 13.2567 7.1541 13.1866 7.08403C13.1165 7.01395 13.0215 6.97458 12.9224 6.97458C12.8233 6.97458 12.7282 7.01395 12.6582 7.08403C12.5881 7.1541 12.5487 7.24915 12.5487 7.34825V9.37254C12.5355 9.43038 12.5355 9.49045 12.5487 9.54829V10.6875C12.5487 10.7866 12.5881 10.8816 12.6582 10.9517C12.7282 11.0218 12.8233 11.0612 12.9224 11.0612C13.0215 11.0612 13.1165 11.0218 13.1866 10.9517C13.2567 10.8816 13.296 10.7866 13.296 10.6875V9.60846L13.6341 9.2815L14.7646 10.891C14.7928 10.9311 14.8287 10.9654 14.8701 10.9917C14.9116 11.018 14.9578 11.0359 15.0062 11.0444C15.0546 11.0528 15.1041 11.0517 15.152 11.041C15.2 11.0303 15.2453 11.0102 15.2855 10.982C15.3257 10.9538 15.3599 10.9179 15.3862 10.8765C15.4126 10.835 15.4305 10.7888 15.4389 10.7404C15.4474 10.692 15.4462 10.6425 15.4355 10.5945C15.4248 10.5466 15.4048 10.5013 15.3765 10.4611L14.178 8.75583ZM11.8362 10.279H10.6804V7.36013C10.676 7.2641 10.6347 7.17348 10.5652 7.10709C10.4957 7.0407 10.4032 7.00365 10.3071 7.00365C10.211 7.00365 10.1186 7.0407 10.049 7.10709C9.97952 7.17348 9.93826 7.2641 9.93384 7.36013V10.6527C9.93384 10.8585 10.1001 11.0263 10.3067 11.0263H11.8362C11.9353 11.0263 12.0304 10.987 12.1004 10.9169C12.1705 10.8468 12.2099 10.7518 12.2099 10.6527C12.2099 10.5536 12.1705 10.4585 12.1004 10.3884C12.0304 10.3184 11.9353 10.279 11.8362 10.279ZM7.19942 9.41529L7.75042 8.06313L8.2555 9.4145L7.19942 9.41529ZM9.19679 9.80083L9.19838 9.78817C9.19811 9.69405 9.16218 9.60352 9.09783 9.53483L8.26975 7.31817C8.23504 7.21253 8.16892 7.12001 8.08022 7.05295C7.99152 6.9859 7.88447 6.94751 7.77338 6.94292C7.66157 6.94287 7.55236 6.97664 7.46009 7.03979C7.36783 7.10295 7.29683 7.19254 7.25642 7.29679L5.94067 10.5228C5.90319 10.6146 5.9037 10.7175 5.94207 10.8089C5.98045 10.9002 6.05356 10.9726 6.14531 11.0101C6.23707 11.0476 6.33995 11.0471 6.43133 11.0087C6.52271 10.9703 6.59511 10.8972 6.63259 10.8055L6.89542 10.1618H8.53417L8.77009 10.7952C8.78618 10.8425 8.81161 10.8861 8.84487 10.9235C8.87813 10.9608 8.91855 10.9911 8.96373 11.0125C9.0089 11.0339 9.05792 11.0461 9.10787 11.0482C9.15783 11.0504 9.20771 11.0425 9.25455 11.025C9.30139 11.0075 9.34425 10.9808 9.38058 10.9464C9.41692 10.9121 9.44599 10.8708 9.46607 10.825C9.48615 10.7792 9.49684 10.7298 9.4975 10.6798C9.49816 10.6298 9.48878 10.5802 9.46992 10.5339L9.19679 9.80083ZM6.56609 7.36408C6.56629 7.31502 6.5568 7.2664 6.53814 7.22102C6.51949 7.17565 6.49204 7.1344 6.45739 7.09968C6.42273 7.06495 6.38155 7.03741 6.33621 7.01866C6.29087 6.99991 6.24227 6.99031 6.19321 6.99042H3.62425C3.52515 6.99042 3.43011 7.02979 3.36003 7.09986C3.28995 7.16994 3.25059 7.26498 3.25059 7.36408C3.25059 7.46319 3.28995 7.55823 3.36003 7.62831C3.43011 7.69838 3.52515 7.73775 3.62425 7.73775H4.54259V10.6954C4.54259 10.7945 4.58195 10.8896 4.65203 10.9596C4.72211 11.0297 4.81715 11.0691 4.91625 11.0691C5.01535 11.0691 5.1104 11.0297 5.18047 10.9596C5.25055 10.8896 5.28992 10.7945 5.28992 10.6954V7.73775H6.19242C6.24155 7.73796 6.29023 7.72844 6.33566 7.70973C6.38109 7.69103 6.42237 7.66351 6.45711 7.62877C6.49185 7.59403 6.51936 7.55276 6.53807 7.50733C6.55677 7.4619 6.56629 7.41321 6.56609 7.36408Z" fill="#0F1012"/>
<ellipse cx="9.5" cy="8.70837" rx="7.125" ry="4.75" fill="#0F1012"/>
</svg>
