<svg width="24" height="24" viewBox="0 0 24 24" fill="none" xmlns="http://www.w3.org/2000/svg">
<path d="M5.17157 15.1716C4.42143 15.9217 4 16.9391 4 18C4 18.5304 4.21071 19.0391 4.58579 19.4142C4.96086 19.7893 5.46957 20 6 20H18C18.5304 20 19.0391 19.7893 19.4142 19.4142C19.7893 19.0391 20 18.5304 20 18C20 16.9391 19.5786 15.9217 18.8284 15.1716L12 13.5L5.17157 15.1716Z" stroke="#808080" stroke-width="2" stroke-linejoin="round"/>
<path d="M12 10C13.6569 10 15 8.65685 15 7C15 5.34315 13.6569 4 12 4C10.3431 4 9 5.34315 9 7C9 8.65685 10.3431 10 12 10Z" stroke="#808080" stroke-width="2"/>
</svg>
