<svg width="24" height="23" viewBox="0 0 24 23" fill="none" xmlns="http://www.w3.org/2000/svg">
<path d="M17 12C16.45 12 16 12.45 16 13V18.22C16 18.77 15.55 19.22 15 19.22H5C4.45 19.22 4 18.77 4 18.22V8C4 7.45 4.45 7 5 7H10C10.55 7 11 6.55 11 6C11 5.45 10.55 5 10 5H4C2.9 5 2 5.9 2 7V19C2 20.1 2.9 21 4 21H16C17.1 21 18 20.1 18 19V13C18 12.45 17.55 12 17 12ZM20.02 5H18V2.98C18 2.44 17.56 2 17.02 2H16.99C16.44 2 16 2.44 16 2.98V5H13.99C13.45 5 13.01 5.44 13 5.98V6.01C13 6.56 13.44 7 13.99 7H16V9.01C16 9.55 16.44 10 16.99 9.99H17.02C17.56 9.99 18 9.55 18 9.01V7H20.02C20.56 7 21 6.56 21 6.02V5.98C21 5.44 20.56 5 20.02 5Z" fill="#808080"/>
<path d="M12.8335 9.43331H6.8335C6.2835 9.43331 5.8335 9.86456 5.8335 10.3916C5.8335 10.9187 6.2835 11.35 6.8335 11.35H9.8335H12.8335C13.3835 11.35 13.8335 10.9187 13.8335 10.3916C13.8335 9.86456 13.3835 9.43331 12.8335 9.43331ZM12.8335 12.3083H6.8335C6.2835 12.3083 5.8335 12.7396 5.8335 13.2666C5.8335 13.7937 6.2835 14.225 6.8335 14.225H12.8335C13.3835 14.225 13.8335 13.7937 13.8335 13.2666C13.8335 12.7396 13.3835 12.3083 12.8335 12.3083ZM12.8335 15.1833H6.8335C6.2835 15.1833 5.8335 15.6146 5.8335 16.1416C5.8335 16.6687 6.2835 17.1 6.8335 17.1H12.8335C13.3835 17.1 13.8335 16.6687 13.8335 16.1416C13.8335 15.6146 13.3835 15.1833 12.8335 15.1833Z" fill="#808080"/>
</svg>
