<svg width="16" height="16" viewBox="0 0 16 16" fill="none" xmlns="http://www.w3.org/2000/svg">
<path fill-rule="evenodd" clip-rule="evenodd" d="M4.75 1C4.94891 1 5.13968 1.07902 5.28033 1.21967C5.42098 1.36032 5.5 1.55109 5.5 1.75V3H10.5V1.75C10.5 1.55109 10.579 1.36032 10.7197 1.21967C10.8603 1.07902 11.0511 1 11.25 1C11.4489 1 11.6397 1.07902 11.7803 1.21967C11.921 1.36032 12 1.55109 12 1.75V3H14C14.2652 3 14.5196 3.10536 14.7071 3.29289C14.8946 3.48043 15 3.73478 15 4V14C15 14.2652 14.8946 14.5196 14.7071 14.7071C14.5196 14.8946 14.2652 15 14 15H2C1.73478 15 1.48043 14.8946 1.29289 14.7071C1.10536 14.5196 1 14.2652 1 14V4C1 3.73478 1.10536 3.48043 1.29289 3.29289C1.48043 3.10536 1.73478 3 2 3H4V1.75C4 1.55109 4.07902 1.36032 4.21967 1.21967C4.36032 1.07902 4.55109 1 4.75 1ZM2.5 4.5V6H13.5V4.5H2.5ZM2.5 13.5V7.5H13.5V13.5H2.5ZM11 11C11.2652 11 11.5196 10.8946 11.7071 10.7071C11.8946 10.5196 12 10.2652 12 10C12 9.73478 11.8946 9.48043 11.7071 9.29289C11.5196 9.10536 11.2652 9 11 9C10.7348 9 10.4804 9.10536 10.2929 9.29289C10.1054 9.48043 10 9.73478 10 10C10 10.2652 10.1054 10.5196 10.2929 10.7071C10.4804 10.8946 10.7348 11 11 11Z" fill="#1E3A8A"/>
</svg>
