<svg width="21" height="18" viewBox="0 0 21 18" fill="none" xmlns="http://www.w3.org/2000/svg">
<path d="M13.8333 0C14.0543 0 14.2663 0.0877973 14.4226 0.244078C14.5789 0.400358 14.6667 0.61232 14.6667 0.833333V1.66667H16.3333C16.7754 1.66667 17.1993 1.84226 17.5118 2.15482C17.8244 2.46738 18 2.89131 18 3.33333V13.3333C18 13.7754 17.8244 14.1993 17.5118 14.5118C17.1993 14.8244 16.7754 15 16.3333 15H4.66667C4.22464 15 3.80072 14.8244 3.48816 14.5118C3.17559 14.1993 3 13.7754 3 13.3333V3.33333C3 2.89131 3.17559 2.46738 3.48816 2.15482C3.80072 1.84226 4.22464 1.66667 4.66667 1.66667H6.33333V0.833333C6.33333 0.61232 6.42113 0.400358 6.57741 0.244078C6.73369 0.0877973 6.94565 0 7.16667 0C7.38768 0 7.59964 0.0877973 7.75592 0.244078C7.9122 0.400358 8 0.61232 8 0.833333V1.66667H13V0.833333C13 0.61232 13.0878 0.400358 13.2441 0.244078C13.4004 0.0877973 13.6123 0 13.8333 0ZM16.3333 3.33333H4.66667V13.3333H16.3333V3.33333Z" fill="#575757"/>
<rect width="1.60495" height="7.7144" rx="0.802475" transform="matrix(0.771013 -0.63682 0.771013 0.63682 7 6.52637)" fill="#575757"/>
<rect width="1.60495" height="7.7144" rx="0.802475" transform="matrix(-0.771013 -0.63682 -0.771013 0.63682 14.1854 6.52637)" fill="#575757"/>
</svg>
