<svg width="21" height="18" viewBox="0 0 21 18" fill="none" xmlns="http://www.w3.org/2000/svg">
<path d="M13.8333 0C14.0543 0 14.2663 0.0877973 14.4226 0.244078C14.5789 0.400358 14.6667 0.61232 14.6667 0.833333V1.66667H16.3333C16.7754 1.66667 17.1993 1.84226 17.5118 2.15482C17.8244 2.46738 18 2.89131 18 3.33333V13.3333C18 13.7754 17.8244 14.1993 17.5118 14.5118C17.1993 14.8244 16.7754 15 16.3333 15H4.66667C4.22464 15 3.80072 14.8244 3.48816 14.5118C3.17559 14.1993 3 13.7754 3 13.3333V3.33333C3 2.89131 3.17559 2.46738 3.48816 2.15482C3.80072 1.84226 4.22464 1.66667 4.66667 1.66667H6.33333V0.833333C6.33333 0.61232 6.42113 0.400358 6.57741 0.244078C6.73369 0.0877973 6.94565 0 7.16667 0C7.38768 0 7.59964 0.0877973 7.75592 0.244078C7.9122 0.400358 8 0.61232 8 0.833333V1.66667H13V0.833333C13 0.61232 13.0878 0.400358 13.2441 0.244078C13.4004 0.0877973 13.6123 0 13.8333 0ZM16.3333 3.33333H4.66667V13.3333H16.3333V3.33333ZM12.8533 5.31583C13.0105 5.16403 13.221 5.08004 13.4395 5.08194C13.658 5.08384 13.867 5.17148 14.0215 5.32598C14.176 5.48049 14.2637 5.6895 14.2656 5.908C14.2675 6.1265 14.1835 6.337 14.0317 6.49417L9.91333 10.6133C9.83517 10.6916 9.74235 10.7536 9.64018 10.796C9.53802 10.8383 9.42851 10.8601 9.31792 10.8601C9.20732 10.8601 9.09781 10.8383 8.99565 10.796C8.89348 10.7536 8.80067 10.6916 8.7225 10.6133L6.96083 8.85C6.80903 8.69283 6.72504 8.48233 6.72694 8.26383C6.72884 8.04534 6.81648 7.83632 6.97098 7.68182C7.12549 7.52731 7.3345 7.43967 7.553 7.43777C7.7715 7.43587 7.982 7.51987 8.13917 7.67167L9.31833 8.85L12.8533 5.31583Z" fill="#575757"/>
</svg>
