<svg width="14" height="14" viewBox="0 0 14 14" fill="none" xmlns="http://www.w3.org/2000/svg">
<path d="M2 10.75C2 10.087 2.26339 9.45107 2.73223 8.98223C3.20107 8.51339 3.83696 8.25 4.5 8.25H9.5C10.163 8.25 10.7989 8.51339 11.2678 8.98223C11.7366 9.45107 12 10.087 12 10.75C12 11.0815 11.8683 11.3995 11.6339 11.6339C11.3995 11.8683 11.0815 12 10.75 12H3.25C2.91848 12 2.60054 11.8683 2.36612 11.6339C2.1317 11.3995 2 11.0815 2 10.75Z" stroke="#575757" stroke-width="1.5" stroke-linejoin="round"/>
<path d="M7 5.75C8.03553 5.75 8.875 4.91053 8.875 3.875C8.875 2.83947 8.03553 2 7 2C5.96447 2 5.125 2.83947 5.125 3.875C5.125 4.91053 5.96447 5.75 7 5.75Z" stroke="#575757" stroke-width="1.5"/>
</svg>
