<svg width="25" height="22" viewBox="0 0 25 22" fill="none" xmlns="http://www.w3.org/2000/svg">
<path d="M16.7222 0C17.0022 0 17.2707 0.11121 17.4686 0.309165C17.6666 0.507121 17.7778 0.775606 17.7778 1.05556V2.11111H19.8889C20.4488 2.11111 20.9858 2.33353 21.3817 2.72944C21.7776 3.12535 22 3.66232 22 4.22223V16.8889C22 17.4488 21.7776 17.9858 21.3817 18.3817C20.9858 18.7776 20.4488 19 19.8889 19H5.11111C4.55121 19 4.01424 18.7776 3.61833 18.3817C3.22242 17.9858 3 17.4488 3 16.8889V4.22223C3 3.66232 3.22242 3.12535 3.61833 2.72944C4.01424 2.33353 4.55121 2.11111 5.11111 2.11111H7.22222V1.05556C7.22222 0.775606 7.33343 0.507121 7.53139 0.309165C7.72934 0.11121 7.99783 0 8.27778 0C8.55773 0 8.82621 0.11121 9.02417 0.309165C9.22212 0.507121 9.33333 0.775606 9.33333 1.05556V2.11111H15.6667V1.05556C15.6667 0.775606 15.7779 0.507121 15.9758 0.309165C16.1738 0.11121 16.4423 0 16.7222 0ZM19.8889 4.22223H5.11111V16.8889H19.8889V4.22223Z" fill="black"/>
</svg>
