<svg width="13" height="13" viewBox="0 0 13 13" fill="none" xmlns="http://www.w3.org/2000/svg">
<path d="M3.25002 2.16659H2.16669V1.08325H10.8334V2.16659H9.75002V3.24992C9.75002 4.12471 9.30802 4.82888 8.75119 5.40413C8.3704 5.79738 7.90727 6.15975 7.43765 6.49992C7.90727 6.84008 8.3704 7.20246 8.75119 7.59571C9.30802 8.17096 9.75002 8.87513 9.75002 9.74992V10.8333H10.8334V11.9166H2.16669V10.8333H3.25002V9.74992C3.25002 8.87513 3.69202 8.17096 4.24885 7.59571C4.62965 7.20246 5.09277 6.84008 5.5624 6.49992C5.09277 6.15975 4.62965 5.79738 4.24885 5.40413C3.69202 4.82888 3.25002 4.12471 3.25002 3.24992V2.16659ZM4.33335 2.16659V3.24992C4.33335 3.62096 4.47419 3.97304 4.75098 4.33325H8.24906C8.52531 3.97304 8.66669 3.62096 8.66669 3.24992V2.16659H4.33335ZM6.50002 7.16183C5.93398 7.56158 5.42102 7.94238 5.02723 8.34917C4.92934 8.44978 4.83712 8.55575 4.75098 8.66658H8.24906C8.16293 8.55575 8.0707 8.44978 7.97281 8.34917C7.57902 7.94238 7.06606 7.56158 6.50002 7.16183Z" fill="#575757"/>
</svg>
