<svg width="13" height="13" viewBox="0 0 13 13" fill="none" xmlns="http://www.w3.org/2000/svg">
<path d="M7.73511 2.37084L9.39412 0.711834C9.5298 0.576197 9.71379 0.5 9.90564 0.5C10.0975 0.5 10.2815 0.576197 10.4172 0.711834L12.2882 2.58283C12.4238 2.71851 12.5 2.90251 12.5 3.09436C12.5 3.28621 12.4238 3.4702 12.2882 3.60588L10.6292 5.26489M7.73511 2.37084L0.711989 9.39397C0.576295 9.52962 0.500041 9.71362 0.5 9.90549V11.7765C0.5 11.9684 0.576227 12.1524 0.711912 12.2881C0.847596 12.4238 1.03162 12.5 1.22351 12.5H3.09451C3.28638 12.5 3.47038 12.4237 3.60603 12.288L10.6292 5.26489M7.73511 2.37084L10.6292 5.26489" stroke="white" stroke-linecap="round" stroke-linejoin="round"/>
</svg>
